<mxfile host="Electron" agent="Mozilla/5.0 (Macintosh; Intel Mac OS X 10_15_7) AppleWebKit/537.36 (KHTML, like Gecko) draw.io/28.1.2 Chrome/138.0.7204.243 Electron/37.4.0 Safari/537.36" version="28.1.2" pages="3">
  <diagram id="visionaree-architecture" name="Visionaree Architecture">
    <mxGraphModel dx="1018" dy="748" grid="1" gridSize="10" guides="1" tooltips="1" connect="1" arrows="1" fold="1" page="1" pageScale="1" pageWidth="1920" pageHeight="1080" math="0" shadow="0">
      <root>
        <mxCell id="0" />
        <mxCell id="1" parent="0" />
        <mxCell id="container_frontend" value="Frontend (Nuxt 3)" style="swimlane;childLayout=stackLayout;horizontal=1;startSize=26;rounded=1;whiteSpace=wrap;html=1;fillColor=#e1f5fe;strokeColor=#0288d1;" parent="1" vertex="1">
          <mxGeometry x="40" y="60" width="360" height="220" as="geometry" />
        </mxCell>
        <mxCell id="user_browser" value="User Browser" style="rounded=1;whiteSpace=wrap;html=1;fillColor=#ffffff;strokeColor=#0288d1;" parent="container_frontend" vertex="1">
          <mxGeometry x="20" y="40" width="150" height="60" as="geometry" />
        </mxCell>
        <mxCell id="nuxt_app" value="Nuxt Frontend\n- Upload via presigned URL\n- Query insights" style="rounded=1;whiteSpace=wrap;html=1;fillColor=#bbdefb;strokeColor=#0288d1;" parent="container_frontend" vertex="1">
          <mxGeometry x="190" y="40" width="150" height="120" as="geometry" />
        </mxCell>
        <mxCell id="container_api" value="API &amp; Lambdas" style="swimlane;childLayout=stackLayout;horizontal=1;startSize=26;rounded=1;whiteSpace=wrap;html=1;fillColor=#ede7f6;strokeColor=#5e35b1;" parent="1" vertex="1">
          <mxGeometry x="440" y="40" width="460" height="520" as="geometry" />
        </mxCell>
        <mxCell id="api_gw" value="API Gateway\n- /presigned-url (POST)\n- /video/{jobId}/ask (POST)\n- /health (GET)" style="rounded=1;whiteSpace=wrap;html=1;fillColor=#d1c4e9;strokeColor=#5e35b1;" parent="container_api" vertex="1">
          <mxGeometry x="20" y="40" width="200" height="120" as="geometry" />
        </mxCell>
        <mxCell id="lambda_presigned" value="Lambda: PresignedUrlFunction\n(presigned_url_handler.py)" style="rounded=1;whiteSpace=wrap;html=1;fillColor=#c5e1a5;strokeColor=#558b2f;" parent="container_api" vertex="1">
          <mxGeometry x="250" y="40" width="180" height="80" as="geometry" />
        </mxCell>
        <mxCell id="lambda_s3_processor" value="Lambda: S3EventProcessor\n(s3_event_processor.py)\n- FFmpeg Layer\n- Segment + Upload\n- Summarize via Bedrock\n- Save to DynamoDB" style="rounded=1;whiteSpace=wrap;html=1;fillColor=#c5e1a5;strokeColor=#558b2f;" parent="container_api" vertex="1">
          <mxGeometry x="20" y="190" width="410" height="180" as="geometry" />
        </mxCell>
        <mxCell id="lambda_query" value="Lambda: VideoQueryHandler\n(video_query_handler.py)\n- Read segments\n- Invoke Bedrock\n- Return insights" style="rounded=1;whiteSpace=wrap;html=1;fillColor=#c5e1a5;strokeColor=#558b2f;" parent="container_api" vertex="1">
          <mxGeometry x="20" y="390" width="410" height="100" as="geometry" />
        </mxCell>
        <mxCell id="container_storage" value="Storage (S3)" style="swimlane;childLayout=stackLayout;horizontal=1;startSize=26;rounded=1;whiteSpace=wrap;html=1;fillColor=#fff3e0;strokeColor=#ef6c00;" parent="1" vertex="1">
          <mxGeometry x="940" y="60" width="420" height="280" as="geometry" />
        </mxCell>
        <mxCell id="s3_uploads" value="S3: Uploads Bucket\nvisionaree-videos-&lt;account&gt;-&lt;region&gt;\n/videos/{jobId}/original/*" style="rounded=1;whiteSpace=wrap;html=1;fillColor=#ffe0b2;strokeColor=#ef6c00;" parent="container_storage" vertex="1">
          <mxGeometry x="20" y="40" width="370" height="90" as="geometry" />
        </mxCell>
        <mxCell id="s3_segments" value="S3: Segments Bucket\nvisionaree-segments-&lt;account&gt;-&lt;region&gt;\n/videos/{jobId}/segments/*" style="rounded=1;whiteSpace=wrap;html=1;fillColor=#ffe0b2;strokeColor=#ef6c00;" parent="container_storage" vertex="1">
          <mxGeometry x="20" y="150" width="370" height="90" as="geometry" />
        </mxCell>
        <mxCell id="container_ai" value="AI (Amazon Bedrock)" style="swimlane;childLayout=stackLayout;horizontal=1;startSize=26;rounded=1;whiteSpace=wrap;html=1;fillColor=#e8f5e9;strokeColor=#2e7d32;" parent="1" vertex="1">
          <mxGeometry x="940" y="360" width="420" height="120" as="geometry" />
        </mxCell>
        <mxCell id="bedrock" value="Amazon Bedrock\nNova Pro (us.amazon.nova-pro-v1:0)\nInvokeModel" style="rounded=1;whiteSpace=wrap;html=1;fillColor=#c8e6c9;strokeColor=#2e7d32;" parent="container_ai" vertex="1">
          <mxGeometry x="20" y="40" width="370" height="60" as="geometry" />
        </mxCell>
        <mxCell id="container_db" value="Data (DynamoDB)" style="swimlane;childLayout=stackLayout;horizontal=1;startSize=26;rounded=1;whiteSpace=wrap;html=1;fillColor=#f3e5f5;strokeColor=#8e24aa;" parent="1" vertex="1">
          <mxGeometry x="940" y="500" width="420" height="180" as="geometry" />
        </mxCell>
        <mxCell id="ddb_analysis" value="DynamoDB: VideoAnalysisTable\nPK: jobId (S)\nSK: segmentStartTime (N)" style="rounded=1;whiteSpace=wrap;html=1;fillColor=#f8bbd0;strokeColor=#8e24aa;" parent="container_db" vertex="1">
          <mxGeometry x="20" y="40" width="370" height="70" as="geometry" />
        </mxCell>
        <mxCell id="ddb_jobstatus" value="DynamoDB: JobStatusTable\nPK: jobId (S)\nSK: uploadTimestamp (S)\nGSI: StatusIndex (status, uploadTimestamp)" style="rounded=1;whiteSpace=wrap;html=1;fillColor=#f8bbd0;strokeColor=#8e24aa;" parent="container_db" vertex="1">
          <mxGeometry x="20" y="120" width="370" height="80" as="geometry" />
        </mxCell>
        <mxCell id="e1" value="HTTP" style="edgeStyle=orthogonalEdgeStyle;rounded=1;orthogonalLoop=1;jettySize=auto;html=1;endArrow=block;strokeColor=#0288d1;" parent="1" source="user_browser" target="nuxt_app" edge="1">
          <mxGeometry relative="1" as="geometry" />
        </mxCell>
        <mxCell id="e2" value="POST /presigned-url" style="edgeStyle=orthogonalEdgeStyle;rounded=1;orthogonalLoop=1;jettySize=auto;html=1;endArrow=block;strokeColor=#5e35b1;" parent="1" source="nuxt_app" target="api_gw" edge="1">
          <mxGeometry relative="1" as="geometry" />
        </mxCell>
        <mxCell id="e3" value="Lambda Integration" style="edgeStyle=orthogonalEdgeStyle;rounded=1;orthogonalLoop=1;jettySize=auto;html=1;endArrow=block;strokeColor=#5e35b1;" parent="1" source="api_gw" target="lambda_presigned" edge="1">
          <mxGeometry relative="1" as="geometry" />
        </mxCell>
        <mxCell id="e4" value="Return Presigned URL" style="edgeStyle=orthogonalEdgeStyle;rounded=1;orthogonalLoop=1;jettySize=auto;html=1;endArrow=block;strokeColor=#5e35b1;dashed=1;" parent="1" source="lambda_presigned" target="nuxt_app" edge="1">
          <mxGeometry relative="1" as="geometry" />
        </mxCell>
        <mxCell id="e5" value="PUT (presigned)" style="edgeStyle=orthogonalEdgeStyle;rounded=1;orthogonalLoop=1;jettySize=auto;html=1;endArrow=block;strokeColor=#ef6c00;" parent="1" source="nuxt_app" target="s3_uploads" edge="1">
          <mxGeometry relative="1" as="geometry" />
        </mxCell>
        <mxCell id="e6" value="S3 Event: ObjectCreated" style="edgeStyle=orthogonalEdgeStyle;rounded=1;orthogonalLoop=1;jettySize=auto;html=1;endArrow=block;strokeColor=#ef6c00;" parent="1" source="s3_uploads" target="lambda_s3_processor" edge="1">
          <mxGeometry relative="1" as="geometry" />
        </mxCell>
        <mxCell id="e7" value="Download Original Video" style="edgeStyle=orthogonalEdgeStyle;rounded=1;orthogonalLoop=1;jettySize=auto;html=1;endArrow=block;strokeColor=#558b2f;dashed=1;" parent="1" source="lambda_s3_processor" target="s3_uploads" edge="1">
          <mxGeometry relative="1" as="geometry" />
        </mxCell>
        <mxCell id="e8" value="Upload Segments" style="edgeStyle=orthogonalEdgeStyle;rounded=1;orthogonalLoop=1;jettySize=auto;html=1;endArrow=block;strokeColor=#ef6c00;" parent="1" source="lambda_s3_processor" target="s3_segments" edge="1">
          <mxGeometry relative="1" as="geometry" />
        </mxCell>
        <mxCell id="e9" value="InvokeModel (per segment)" style="edgeStyle=orthogonalEdgeStyle;rounded=1;orthogonalLoop=1;jettySize=auto;html=1;endArrow=block;strokeColor=#2e7d32;" parent="1" source="lambda_s3_processor" target="bedrock" edge="1">
          <mxGeometry relative="1" as="geometry" />
        </mxCell>
        <mxCell id="e10" value="Save captions" style="edgeStyle=orthogonalEdgeStyle;rounded=1;orthogonalLoop=1;jettySize=auto;html=1;endArrow=block;strokeColor=#8e24aa;" parent="1" source="lambda_s3_processor" target="ddb_analysis" edge="1">
          <mxGeometry relative="1" as="geometry" />
        </mxCell>
        <mxCell id="e11" value="Update job status" style="edgeStyle=orthogonalEdgeStyle;rounded=1;orthogonalLoop=1;jettySize=auto;html=1;endArrow=block;strokeColor=#8e24aa;" parent="1" source="lambda_s3_processor" target="ddb_jobstatus" edge="1">
          <mxGeometry relative="1" as="geometry" />
        </mxCell>
        <mxCell id="e12" value="POST /video/{jobId}/ask" style="edgeStyle=orthogonalEdgeStyle;rounded=1;orthogonalLoop=1;jettySize=auto;html=1;endArrow=block;strokeColor=#5e35b1;" parent="1" source="nuxt_app" target="api_gw" edge="1">
          <mxGeometry relative="1" as="geometry" />
        </mxCell>
        <mxCell id="e13" value="Lambda Integration" style="edgeStyle=orthogonalEdgeStyle;rounded=1;orthogonalLoop=1;jettySize=auto;html=1;endArrow=block;strokeColor=#5e35b1;" parent="1" source="api_gw" target="lambda_query" edge="1">
          <mxGeometry relative="1" as="geometry" />
        </mxCell>
        <mxCell id="e14" value="Query segments + status" style="edgeStyle=orthogonalEdgeStyle;rounded=1;orthogonalLoop=1;jettySize=auto;html=1;endArrow=block;strokeColor=#8e24aa;dashed=1;" parent="1" source="lambda_query" target="ddb_analysis" edge="1">
          <mxGeometry relative="1" as="geometry" />
        </mxCell>
        <mxCell id="e15" value="Query job status" style="edgeStyle=orthogonalEdgeStyle;rounded=1;orthogonalLoop=1;jettySize=auto;html=1;endArrow=block;strokeColor=#8e24aa;dashed=1;" parent="1" source="lambda_query" target="ddb_jobstatus" edge="1">
          <mxGeometry relative="1" as="geometry" />
        </mxCell>
        <mxCell id="e16" value="InvokeModel (insight)" style="edgeStyle=orthogonalEdgeStyle;rounded=1;orthogonalLoop=1;jettySize=auto;html=1;endArrow=block;strokeColor=#2e7d32;" parent="1" source="lambda_query" target="bedrock" edge="1">
          <mxGeometry relative="1" as="geometry" />
        </mxCell>
        <mxCell id="e17" value="Response (insights only)" style="edgeStyle=orthogonalEdgeStyle;rounded=1;orthogonalLoop=1;jettySize=auto;html=1;endArrow=block;strokeColor=#5e35b1;dashed=1;" parent="1" source="api_gw" target="nuxt_app" edge="1">
          <mxGeometry relative="1" as="geometry" />
        </mxCell>
      </root>
    </mxGraphModel>
  </diagram>
  <diagram id="fd4z6AE4VYs-E_UD2lvk" name="Page-2">
    <mxGraphModel dx="1454" dy="1069" grid="1" gridSize="10" guides="1" tooltips="1" connect="1" arrows="1" fold="1" page="1" pageScale="1" pageWidth="850" pageHeight="1100" math="0" shadow="0">
      <root>
        <mxCell id="0" />
        <mxCell id="1" parent="0" />
        <mxCell id="jva93vTfRvf3eNA4IyUp-5" value="AWS Cloud" style="sketch=0;outlineConnect=0;gradientColor=none;html=1;whiteSpace=wrap;fontSize=12;fontStyle=0;shape=mxgraph.aws4.group;grIcon=mxgraph.aws4.group_aws_cloud;strokeColor=#AAB7B8;fillColor=none;verticalAlign=top;align=left;spacingLeft=30;fontColor=#AAB7B8;dashed=0;" vertex="1" parent="1">
          <mxGeometry x="190" y="200" width="1090" height="570" as="geometry" />
        </mxCell>
        <mxCell id="jva93vTfRvf3eNA4IyUp-9" value="CloudFront" style="sketch=0;points=[[0,0,0],[0.25,0,0],[0.5,0,0],[0.75,0,0],[1,0,0],[0,1,0],[0.25,1,0],[0.5,1,0],[0.75,1,0],[1,1,0],[0,0.25,0],[0,0.5,0],[0,0.75,0],[1,0.25,0],[1,0.5,0],[1,0.75,0]];outlineConnect=0;fontColor=#232F3E;fillColor=#8C4FFF;strokeColor=#ffffff;dashed=0;verticalLabelPosition=bottom;verticalAlign=top;align=center;html=1;fontSize=12;fontStyle=0;aspect=fixed;shape=mxgraph.aws4.resourceIcon;resIcon=mxgraph.aws4.cloudfront;" vertex="1" parent="1">
          <mxGeometry x="250" y="460" width="78" height="78" as="geometry" />
        </mxCell>
        <mxCell id="jva93vTfRvf3eNA4IyUp-10" value="S3" style="sketch=0;points=[[0,0,0],[0.25,0,0],[0.5,0,0],[0.75,0,0],[1,0,0],[0,1,0],[0.25,1,0],[0.5,1,0],[0.75,1,0],[1,1,0],[0,0.25,0],[0,0.5,0],[0,0.75,0],[1,0.25,0],[1,0.5,0],[1,0.75,0]];outlineConnect=0;fontColor=#232F3E;fillColor=#7AA116;strokeColor=#ffffff;dashed=0;verticalLabelPosition=bottom;verticalAlign=top;align=center;html=1;fontSize=12;fontStyle=0;aspect=fixed;shape=mxgraph.aws4.resourceIcon;resIcon=mxgraph.aws4.s3;" vertex="1" parent="1">
          <mxGeometry x="820" y="300" width="78" height="78" as="geometry" />
        </mxCell>
        <mxCell id="jva93vTfRvf3eNA4IyUp-11" value="API Gateway" style="sketch=0;points=[[0,0,0],[0.25,0,0],[0.5,0,0],[0.75,0,0],[1,0,0],[0,1,0],[0.25,1,0],[0.5,1,0],[0.75,1,0],[1,1,0],[0,0.25,0],[0,0.5,0],[0,0.75,0],[1,0.25,0],[1,0.5,0],[1,0.75,0]];outlineConnect=0;fontColor=#232F3E;fillColor=#8C4FFF;strokeColor=#ffffff;dashed=0;verticalLabelPosition=bottom;verticalAlign=top;align=center;html=1;fontSize=12;fontStyle=0;aspect=fixed;shape=mxgraph.aws4.resourceIcon;resIcon=mxgraph.aws4.api_gateway;" vertex="1" parent="1">
          <mxGeometry x="340" y="460" width="78" height="78" as="geometry" />
        </mxCell>
        <mxCell id="jva93vTfRvf3eNA4IyUp-12" value="DynamoDB" style="sketch=0;points=[[0,0,0],[0.25,0,0],[0.5,0,0],[0.75,0,0],[1,0,0],[0,1,0],[0.25,1,0],[0.5,1,0],[0.75,1,0],[1,1,0],[0,0.25,0],[0,0.5,0],[0,0.75,0],[1,0.25,0],[1,0.5,0],[1,0.75,0]];outlineConnect=0;fontColor=#232F3E;fillColor=#C925D1;strokeColor=#ffffff;dashed=0;verticalLabelPosition=bottom;verticalAlign=top;align=center;html=1;fontSize=12;fontStyle=0;aspect=fixed;shape=mxgraph.aws4.resourceIcon;resIcon=mxgraph.aws4.dynamodb;" vertex="1" parent="1">
          <mxGeometry x="820" y="452.5" width="78" height="78" as="geometry" />
        </mxCell>
        <mxCell id="jva93vTfRvf3eNA4IyUp-13" value="Bedrock&lt;br&gt;(Nova Pro)" style="sketch=0;points=[[0,0,0],[0.25,0,0],[0.5,0,0],[0.75,0,0],[1,0,0],[0,1,0],[0.25,1,0],[0.5,1,0],[0.75,1,0],[1,1,0],[0,0.25,0],[0,0.5,0],[0,0.75,0],[1,0.25,0],[1,0.5,0],[1,0.75,0]];outlineConnect=0;fontColor=#232F3E;fillColor=#01A88D;strokeColor=#ffffff;dashed=0;verticalLabelPosition=bottom;verticalAlign=top;align=center;html=1;fontSize=12;fontStyle=0;aspect=fixed;shape=mxgraph.aws4.resourceIcon;resIcon=mxgraph.aws4.bedrock;" vertex="1" parent="1">
          <mxGeometry x="1080" y="620" width="78" height="78" as="geometry" />
        </mxCell>
        <mxCell id="jva93vTfRvf3eNA4IyUp-14" value="Client" style="outlineConnect=0;dashed=0;verticalLabelPosition=bottom;verticalAlign=top;align=center;html=1;shape=mxgraph.aws3.management_console;fillColor=#D2D3D3;gradientColor=none;" vertex="1" parent="1">
          <mxGeometry x="70" y="467.5" width="63" height="63" as="geometry" />
        </mxCell>
        <mxCell id="Sb5Mtmkum5bO2zlaDd4t-1" value="AWS Lambda&lt;br&gt;(Pre-sign Upload URL Generator)" style="sketch=0;points=[[0,0,0],[0.25,0,0],[0.5,0,0],[0.75,0,0],[1,0,0],[0,1,0],[0.25,1,0],[0.5,1,0],[0.75,1,0],[1,1,0],[0,0.25,0],[0,0.5,0],[0,0.75,0],[1,0.25,0],[1,0.5,0],[1,0.75,0]];outlineConnect=0;fontColor=#232F3E;fillColor=#ED7100;strokeColor=#ffffff;dashed=0;verticalLabelPosition=bottom;verticalAlign=top;align=center;html=1;fontSize=12;fontStyle=0;aspect=fixed;shape=mxgraph.aws4.resourceIcon;resIcon=mxgraph.aws4.lambda;" vertex="1" parent="1">
          <mxGeometry x="560" y="300" width="78" height="78" as="geometry" />
        </mxCell>
        <mxCell id="Sb5Mtmkum5bO2zlaDd4t-2" value="AWS Lambda&lt;div&gt;(Ask Agent)&lt;/div&gt;" style="sketch=0;points=[[0,0,0],[0.25,0,0],[0.5,0,0],[0.75,0,0],[1,0,0],[0,1,0],[0.25,1,0],[0.5,1,0],[0.75,1,0],[1,1,0],[0,0.25,0],[0,0.5,0],[0,0.75,0],[1,0.25,0],[1,0.5,0],[1,0.75,0]];outlineConnect=0;fontColor=#232F3E;fillColor=#ED7100;strokeColor=#ffffff;dashed=0;verticalLabelPosition=bottom;verticalAlign=top;align=center;html=1;fontSize=12;fontStyle=0;aspect=fixed;shape=mxgraph.aws4.resourceIcon;resIcon=mxgraph.aws4.lambda;" vertex="1" parent="1">
          <mxGeometry x="560" y="620" width="78" height="78" as="geometry" />
        </mxCell>
        <mxCell id="Sb5Mtmkum5bO2zlaDd4t-5" style="edgeStyle=orthogonalEdgeStyle;rounded=0;orthogonalLoop=1;jettySize=auto;html=1;entryX=0;entryY=0.5;entryDx=0;entryDy=0;entryPerimeter=0;" edge="1" parent="1" source="Sb5Mtmkum5bO2zlaDd4t-1" target="jva93vTfRvf3eNA4IyUp-10">
          <mxGeometry relative="1" as="geometry" />
        </mxCell>
        <mxCell id="Sb5Mtmkum5bO2zlaDd4t-6" style="edgeStyle=orthogonalEdgeStyle;rounded=0;orthogonalLoop=1;jettySize=auto;html=1;entryX=0;entryY=0.5;entryDx=0;entryDy=0;entryPerimeter=0;startArrow=classic;startFill=1;" edge="1" parent="1" source="jva93vTfRvf3eNA4IyUp-11" target="Sb5Mtmkum5bO2zlaDd4t-1">
          <mxGeometry relative="1" as="geometry" />
        </mxCell>
        <mxCell id="Sb5Mtmkum5bO2zlaDd4t-10" value="Get Pre-signed URL for video file upload" style="edgeLabel;html=1;align=center;verticalAlign=middle;resizable=0;points=[];" vertex="1" connectable="0" parent="Sb5Mtmkum5bO2zlaDd4t-6">
          <mxGeometry x="0.0497" y="2" relative="1" as="geometry">
            <mxPoint y="19" as="offset" />
          </mxGeometry>
        </mxCell>
        <mxCell id="Sb5Mtmkum5bO2zlaDd4t-8" style="edgeStyle=orthogonalEdgeStyle;rounded=0;orthogonalLoop=1;jettySize=auto;html=1;entryX=0;entryY=0.5;entryDx=0;entryDy=0;entryPerimeter=0;" edge="1" parent="1" source="jva93vTfRvf3eNA4IyUp-11" target="Sb5Mtmkum5bO2zlaDd4t-2">
          <mxGeometry relative="1" as="geometry" />
        </mxCell>
        <mxCell id="Sb5Mtmkum5bO2zlaDd4t-9" style="edgeStyle=orthogonalEdgeStyle;rounded=0;orthogonalLoop=1;jettySize=auto;html=1;entryX=0;entryY=0.5;entryDx=0;entryDy=0;entryPerimeter=0;" edge="1" parent="1" source="jva93vTfRvf3eNA4IyUp-14" target="jva93vTfRvf3eNA4IyUp-9">
          <mxGeometry relative="1" as="geometry" />
        </mxCell>
        <mxCell id="Sb5Mtmkum5bO2zlaDd4t-11" value="AWS Lambda&lt;br&gt;(Process Video)" style="sketch=0;points=[[0,0,0],[0.25,0,0],[0.5,0,0],[0.75,0,0],[1,0,0],[0,1,0],[0.25,1,0],[0.5,1,0],[0.75,1,0],[1,1,0],[0,0.25,0],[0,0.5,0],[0,0.75,0],[1,0.25,0],[1,0.5,0],[1,0.75,0]];outlineConnect=0;fontColor=#232F3E;fillColor=#ED7100;strokeColor=#ffffff;dashed=0;verticalLabelPosition=bottom;verticalAlign=top;align=center;html=1;fontSize=12;fontStyle=0;aspect=fixed;shape=mxgraph.aws4.resourceIcon;resIcon=mxgraph.aws4.lambda;" vertex="1" parent="1">
          <mxGeometry x="1080" y="300" width="78" height="78" as="geometry" />
        </mxCell>
        <mxCell id="Sb5Mtmkum5bO2zlaDd4t-12" style="edgeStyle=orthogonalEdgeStyle;rounded=0;orthogonalLoop=1;jettySize=auto;html=1;entryX=0;entryY=0.5;entryDx=0;entryDy=0;entryPerimeter=0;endArrow=none;endFill=0;startArrow=classic;startFill=1;" edge="1" parent="1" source="Sb5Mtmkum5bO2zlaDd4t-2" target="jva93vTfRvf3eNA4IyUp-12">
          <mxGeometry relative="1" as="geometry" />
        </mxCell>
        <mxCell id="VbVp6ikzDUEIvVGPsCxC-6" value="Obtain video contexts" style="edgeLabel;html=1;align=center;verticalAlign=middle;resizable=0;points=[];" vertex="1" connectable="0" parent="Sb5Mtmkum5bO2zlaDd4t-12">
          <mxGeometry x="0.0272" y="-1" relative="1" as="geometry">
            <mxPoint y="1" as="offset" />
          </mxGeometry>
        </mxCell>
        <mxCell id="Sb5Mtmkum5bO2zlaDd4t-13" style="edgeStyle=orthogonalEdgeStyle;rounded=0;orthogonalLoop=1;jettySize=auto;html=1;entryX=0;entryY=0.5;entryDx=0;entryDy=0;entryPerimeter=0;startArrow=openThin;startFill=0;" edge="1" parent="1" source="Sb5Mtmkum5bO2zlaDd4t-2" target="jva93vTfRvf3eNA4IyUp-13">
          <mxGeometry relative="1" as="geometry" />
        </mxCell>
        <mxCell id="VbVp6ikzDUEIvVGPsCxC-7" value="Answer user&#39;s query regarding video" style="edgeLabel;html=1;align=center;verticalAlign=middle;resizable=0;points=[];" vertex="1" connectable="0" parent="Sb5Mtmkum5bO2zlaDd4t-13">
          <mxGeometry x="-0.4615" y="2" relative="1" as="geometry">
            <mxPoint x="-277" y="-67" as="offset" />
          </mxGeometry>
        </mxCell>
        <mxCell id="VbVp6ikzDUEIvVGPsCxC-11" value="Prompting and providing video contexts" style="edgeLabel;html=1;align=center;verticalAlign=middle;resizable=0;points=[];" vertex="1" connectable="0" parent="Sb5Mtmkum5bO2zlaDd4t-13">
          <mxGeometry x="-0.0317" y="1" relative="1" as="geometry">
            <mxPoint x="-2" y="-8" as="offset" />
          </mxGeometry>
        </mxCell>
        <mxCell id="Sb5Mtmkum5bO2zlaDd4t-14" style="edgeStyle=orthogonalEdgeStyle;rounded=0;orthogonalLoop=1;jettySize=auto;html=1;entryX=0;entryY=0.5;entryDx=0;entryDy=0;entryPerimeter=0;" edge="1" parent="1" source="jva93vTfRvf3eNA4IyUp-10" target="Sb5Mtmkum5bO2zlaDd4t-11">
          <mxGeometry relative="1" as="geometry" />
        </mxCell>
        <mxCell id="Sb5Mtmkum5bO2zlaDd4t-15" value="File Upload Event" style="edgeLabel;html=1;align=center;verticalAlign=middle;resizable=0;points=[];" vertex="1" connectable="0" parent="Sb5Mtmkum5bO2zlaDd4t-14">
          <mxGeometry x="0.3158" y="-3" relative="1" as="geometry">
            <mxPoint x="-28" y="-12" as="offset" />
          </mxGeometry>
        </mxCell>
        <mxCell id="Sb5Mtmkum5bO2zlaDd4t-16" style="edgeStyle=orthogonalEdgeStyle;rounded=0;orthogonalLoop=1;jettySize=auto;html=1;entryX=1;entryY=0.5;entryDx=0;entryDy=0;entryPerimeter=0;" edge="1" parent="1">
          <mxGeometry relative="1" as="geometry">
            <mxPoint x="1119" y="376" as="sourcePoint" />
            <mxPoint x="898" y="489.5" as="targetPoint" />
            <Array as="points">
              <mxPoint x="1119" y="490" />
              <mxPoint x="989" y="490" />
            </Array>
          </mxGeometry>
        </mxCell>
        <mxCell id="Sb5Mtmkum5bO2zlaDd4t-17" value="Save video comprehension" style="edgeLabel;html=1;align=center;verticalAlign=middle;resizable=0;points=[];" vertex="1" connectable="0" parent="Sb5Mtmkum5bO2zlaDd4t-16">
          <mxGeometry x="0.0374" y="-1" relative="1" as="geometry">
            <mxPoint x="-39" y="-9" as="offset" />
          </mxGeometry>
        </mxCell>
        <mxCell id="VbVp6ikzDUEIvVGPsCxC-2" style="edgeStyle=orthogonalEdgeStyle;rounded=0;orthogonalLoop=1;jettySize=auto;html=1;entryX=0.5;entryY=0;entryDx=0;entryDy=0;entryPerimeter=0;" edge="1" parent="1" source="jva93vTfRvf3eNA4IyUp-14" target="jva93vTfRvf3eNA4IyUp-10">
          <mxGeometry relative="1" as="geometry">
            <Array as="points">
              <mxPoint x="102" y="270" />
              <mxPoint x="859" y="270" />
            </Array>
          </mxGeometry>
        </mxCell>
        <mxCell id="VbVp6ikzDUEIvVGPsCxC-3" value="Uploads video via pre-signed URL" style="edgeLabel;html=1;align=center;verticalAlign=middle;resizable=0;points=[];" vertex="1" connectable="0" parent="VbVp6ikzDUEIvVGPsCxC-2">
          <mxGeometry x="-0.0487" y="3" relative="1" as="geometry">
            <mxPoint y="1" as="offset" />
          </mxGeometry>
        </mxCell>
        <mxCell id="VbVp6ikzDUEIvVGPsCxC-4" style="edgeStyle=orthogonalEdgeStyle;rounded=0;orthogonalLoop=1;jettySize=auto;html=1;entryX=1;entryY=0.5;entryDx=0;entryDy=0;entryPerimeter=0;" edge="1" parent="1" source="Sb5Mtmkum5bO2zlaDd4t-11" target="jva93vTfRvf3eNA4IyUp-13">
          <mxGeometry relative="1" as="geometry">
            <Array as="points">
              <mxPoint x="1200" y="339" />
              <mxPoint x="1200" y="659" />
            </Array>
          </mxGeometry>
        </mxCell>
        <mxCell id="VbVp6ikzDUEIvVGPsCxC-5" value="Comprehend video" style="edgeLabel;html=1;align=center;verticalAlign=middle;resizable=0;points=[];" vertex="1" connectable="0" parent="VbVp6ikzDUEIvVGPsCxC-4">
          <mxGeometry x="-0.0025" relative="1" as="geometry">
            <mxPoint y="1" as="offset" />
          </mxGeometry>
        </mxCell>
        <mxCell id="VbVp6ikzDUEIvVGPsCxC-9" value="S3&lt;br&gt;(NuxtJS Frontend Build)" style="sketch=0;points=[[0,0,0],[0.25,0,0],[0.5,0,0],[0.75,0,0],[1,0,0],[0,1,0],[0.25,1,0],[0.5,1,0],[0.75,1,0],[1,1,0],[0,0.25,0],[0,0.5,0],[0,0.75,0],[1,0.25,0],[1,0.5,0],[1,0.75,0]];outlineConnect=0;fontColor=#232F3E;fillColor=#7AA116;strokeColor=#ffffff;dashed=0;verticalLabelPosition=bottom;verticalAlign=top;align=center;html=1;fontSize=12;fontStyle=0;aspect=fixed;shape=mxgraph.aws4.resourceIcon;resIcon=mxgraph.aws4.s3;" vertex="1" parent="1">
          <mxGeometry x="250" y="620" width="78" height="78" as="geometry" />
        </mxCell>
        <mxCell id="VbVp6ikzDUEIvVGPsCxC-10" style="edgeStyle=orthogonalEdgeStyle;rounded=0;orthogonalLoop=1;jettySize=auto;html=1;entryX=0.5;entryY=1;entryDx=0;entryDy=0;entryPerimeter=0;" edge="1" parent="1" source="VbVp6ikzDUEIvVGPsCxC-9" target="jva93vTfRvf3eNA4IyUp-9">
          <mxGeometry relative="1" as="geometry" />
        </mxCell>
        <mxCell id="yn6dcpCW9Vi35xE73av2-1" value="1" style="ellipse;whiteSpace=wrap;html=1;aspect=fixed;rotation=0;gradientColor=#223548;strokeColor=none;gradientDirection=east;fillColor=#5b738b;rounded=0;pointerEvents=0;fontFamily=Helvetica;fontSize=16;fontColor=#FFFFFF;spacingTop=4;spacingBottom=4;spacingLeft=4;spacingRight=4;points=[];fontStyle=1" vertex="1" parent="1">
          <mxGeometry x="425" y="390" width="30" height="30" as="geometry" />
        </mxCell>
        <mxCell id="yn6dcpCW9Vi35xE73av2-2" value="2" style="ellipse;whiteSpace=wrap;html=1;aspect=fixed;rotation=0;gradientColor=#223548;strokeColor=none;gradientDirection=east;fillColor=#5b738b;rounded=0;pointerEvents=0;fontFamily=Helvetica;fontSize=16;fontColor=#FFFFFF;spacingTop=4;spacingBottom=4;spacingLeft=4;spacingRight=4;points=[];fontStyle=1" vertex="1" parent="1">
          <mxGeometry x="274" y="280" width="30" height="30" as="geometry" />
        </mxCell>
        <mxCell id="yn6dcpCW9Vi35xE73av2-3" value="3" style="ellipse;whiteSpace=wrap;html=1;aspect=fixed;rotation=0;gradientColor=#223548;strokeColor=none;gradientDirection=east;fillColor=#5b738b;rounded=0;pointerEvents=0;fontFamily=Helvetica;fontSize=16;fontColor=#FFFFFF;spacingTop=4;spacingBottom=4;spacingLeft=4;spacingRight=4;points=[];fontStyle=1" vertex="1" parent="1">
          <mxGeometry x="950" y="290" width="30" height="30" as="geometry" />
        </mxCell>
        <mxCell id="yn6dcpCW9Vi35xE73av2-4" value="4" style="ellipse;whiteSpace=wrap;html=1;aspect=fixed;rotation=0;gradientColor=#223548;strokeColor=none;gradientDirection=east;fillColor=#5b738b;rounded=0;pointerEvents=0;fontFamily=Helvetica;fontSize=16;fontColor=#FFFFFF;spacingTop=4;spacingBottom=4;spacingLeft=4;spacingRight=4;points=[];fontStyle=1" vertex="1" parent="1">
          <mxGeometry x="1158" y="460" width="30" height="30" as="geometry" />
        </mxCell>
        <mxCell id="yn6dcpCW9Vi35xE73av2-5" value="5" style="ellipse;whiteSpace=wrap;html=1;aspect=fixed;rotation=0;gradientColor=#223548;strokeColor=none;gradientDirection=east;fillColor=#5b738b;rounded=0;pointerEvents=0;fontFamily=Helvetica;fontSize=16;fontColor=#FFFFFF;spacingTop=4;spacingBottom=4;spacingLeft=4;spacingRight=4;points=[];fontStyle=1" vertex="1" parent="1">
          <mxGeometry x="950" y="438" width="30" height="30" as="geometry" />
        </mxCell>
        <mxCell id="yn6dcpCW9Vi35xE73av2-6" value="6" style="ellipse;whiteSpace=wrap;html=1;aspect=fixed;rotation=0;gradientColor=#223548;strokeColor=none;gradientDirection=east;fillColor=#5b738b;rounded=0;pointerEvents=0;fontFamily=Helvetica;fontSize=16;fontColor=#FFFFFF;spacingTop=4;spacingBottom=4;spacingLeft=4;spacingRight=4;points=[];fontStyle=1" vertex="1" parent="1">
          <mxGeometry x="418" y="620" width="30" height="30" as="geometry" />
        </mxCell>
        <mxCell id="yn6dcpCW9Vi35xE73av2-7" value="7" style="ellipse;whiteSpace=wrap;html=1;aspect=fixed;rotation=0;gradientColor=#223548;strokeColor=none;gradientDirection=east;fillColor=#5b738b;rounded=0;pointerEvents=0;fontFamily=Helvetica;fontSize=16;fontColor=#FFFFFF;spacingTop=4;spacingBottom=4;spacingLeft=4;spacingRight=4;points=[];fontStyle=1" vertex="1" parent="1">
          <mxGeometry x="690" y="620" width="30" height="30" as="geometry" />
        </mxCell>
      </root>
    </mxGraphModel>
  </diagram>
  <diagram id="WgANN-e1WxLz4O4SIv3K" name="Page-3">
    <mxGraphModel dx="1198" dy="880" grid="1" gridSize="10" guides="1" tooltips="1" connect="1" arrows="1" fold="1" page="1" pageScale="1" pageWidth="850" pageHeight="1100" math="0" shadow="0">
      <root>
        <mxCell id="0" />
        <mxCell id="1" parent="0" />
        <mxCell id="Q74Er9m0T3r0-9d9bLP1-4" value="Frontend (Nuxt 3)" style="swimlane;whiteSpace=wrap;html=1;rounded=1;fillColor=#dae8fc;strokeColor=#6c8ebf;" vertex="1" parent="1">
          <mxGeometry x="310" y="330" width="200" height="350" as="geometry" />
        </mxCell>
        <mxCell id="xhYmNqQc8aKWIeo14MQx-1" value="CloudFront" style="sketch=0;points=[[0,0,0],[0.25,0,0],[0.5,0,0],[0.75,0,0],[1,0,0],[0,1,0],[0.25,1,0],[0.5,1,0],[0.75,1,0],[1,1,0],[0,0.25,0],[0,0.5,0],[0,0.75,0],[1,0.25,0],[1,0.5,0],[1,0.75,0]];outlineConnect=0;fontColor=#232F3E;fillColor=#8C4FFF;strokeColor=#ffffff;dashed=0;verticalLabelPosition=bottom;verticalAlign=top;align=center;html=1;fontSize=12;fontStyle=0;aspect=fixed;shape=mxgraph.aws4.resourceIcon;resIcon=mxgraph.aws4.cloudfront;" vertex="1" parent="Q74Er9m0T3r0-9d9bLP1-4">
          <mxGeometry x="61" y="60" width="78" height="78" as="geometry" />
        </mxCell>
        <mxCell id="54Nu0ILEuwH1D4x8dWwP-1" value="S3" style="sketch=0;points=[[0,0,0],[0.25,0,0],[0.5,0,0],[0.75,0,0],[1,0,0],[0,1,0],[0.25,1,0],[0.5,1,0],[0.75,1,0],[1,1,0],[0,0.25,0],[0,0.5,0],[0,0.75,0],[1,0.25,0],[1,0.5,0],[1,0.75,0]];outlineConnect=0;fontColor=#232F3E;fillColor=#7AA116;strokeColor=#ffffff;dashed=0;verticalLabelPosition=bottom;verticalAlign=top;align=center;html=1;fontSize=12;fontStyle=0;aspect=fixed;shape=mxgraph.aws4.resourceIcon;resIcon=mxgraph.aws4.s3;" vertex="1" parent="Q74Er9m0T3r0-9d9bLP1-4">
          <mxGeometry x="61" y="200" width="78" height="78" as="geometry" />
        </mxCell>
        <mxCell id="0pYfR2JK0QErsrnYNpTu-2" value="API and Compute" style="swimlane;whiteSpace=wrap;html=1;rounded=1;arcSize=19;fillColor=#fff2cc;strokeColor=#d6b656;" vertex="1" parent="1">
          <mxGeometry x="560" y="330" width="200" height="350" as="geometry" />
        </mxCell>
        <mxCell id="bp2Tj5DbHQKHztfVtZYA-1" value="API Gateway" style="sketch=0;points=[[0,0,0],[0.25,0,0],[0.5,0,0],[0.75,0,0],[1,0,0],[0,1,0],[0.25,1,0],[0.5,1,0],[0.75,1,0],[1,1,0],[0,0.25,0],[0,0.5,0],[0,0.75,0],[1,0.25,0],[1,0.5,0],[1,0.75,0]];outlineConnect=0;fontColor=#232F3E;fillColor=#8C4FFF;strokeColor=#ffffff;dashed=0;verticalLabelPosition=bottom;verticalAlign=top;align=center;html=1;fontSize=12;fontStyle=0;aspect=fixed;shape=mxgraph.aws4.resourceIcon;resIcon=mxgraph.aws4.api_gateway;" vertex="1" parent="0pYfR2JK0QErsrnYNpTu-2">
          <mxGeometry x="60" y="60" width="78" height="78" as="geometry" />
        </mxCell>
        <mxCell id="u51ResZiJN5616-IdnWF-1" value="AWS Lambda" style="sketch=0;points=[[0,0,0],[0.25,0,0],[0.5,0,0],[0.75,0,0],[1,0,0],[0,1,0],[0.25,1,0],[0.5,1,0],[0.75,1,0],[1,1,0],[0,0.25,0],[0,0.5,0],[0,0.75,0],[1,0.25,0],[1,0.5,0],[1,0.75,0]];outlineConnect=0;fontColor=#232F3E;fillColor=#ED7100;strokeColor=#ffffff;dashed=0;verticalLabelPosition=bottom;verticalAlign=top;align=center;html=1;fontSize=12;fontStyle=0;aspect=fixed;shape=mxgraph.aws4.resourceIcon;resIcon=mxgraph.aws4.lambda;" vertex="1" parent="0pYfR2JK0QErsrnYNpTu-2">
          <mxGeometry x="60" y="200" width="78" height="78" as="geometry" />
        </mxCell>
        <mxCell id="LKXpSwE4TlSsRt7zyoWO-1" value="Data and Storage" style="swimlane;whiteSpace=wrap;html=1;rounded=1;arcSize=19;fillColor=#e1d5e7;strokeColor=#9673a6;" vertex="1" parent="1">
          <mxGeometry x="810" y="330" width="200" height="350" as="geometry" />
        </mxCell>
        <mxCell id="pmHg2XoGszwwqJ66VTVL-1" value="S3" style="sketch=0;points=[[0,0,0],[0.25,0,0],[0.5,0,0],[0.75,0,0],[1,0,0],[0,1,0],[0.25,1,0],[0.5,1,0],[0.75,1,0],[1,1,0],[0,0.25,0],[0,0.5,0],[0,0.75,0],[1,0.25,0],[1,0.5,0],[1,0.75,0]];outlineConnect=0;fontColor=#232F3E;fillColor=#7AA116;strokeColor=#ffffff;dashed=0;verticalLabelPosition=bottom;verticalAlign=top;align=center;html=1;fontSize=12;fontStyle=0;aspect=fixed;shape=mxgraph.aws4.resourceIcon;resIcon=mxgraph.aws4.s3;" vertex="1" parent="LKXpSwE4TlSsRt7zyoWO-1">
          <mxGeometry x="61" y="60" width="78" height="78" as="geometry" />
        </mxCell>
        <mxCell id="d2s0AVfZYAkPXcoZYG46-1" value="DynamoDB" style="sketch=0;points=[[0,0,0],[0.25,0,0],[0.5,0,0],[0.75,0,0],[1,0,0],[0,1,0],[0.25,1,0],[0.5,1,0],[0.75,1,0],[1,1,0],[0,0.25,0],[0,0.5,0],[0,0.75,0],[1,0.25,0],[1,0.5,0],[1,0.75,0]];outlineConnect=0;fontColor=#232F3E;fillColor=#C925D1;strokeColor=#ffffff;dashed=0;verticalLabelPosition=bottom;verticalAlign=top;align=center;html=1;fontSize=12;fontStyle=0;aspect=fixed;shape=mxgraph.aws4.resourceIcon;resIcon=mxgraph.aws4.dynamodb;" vertex="1" parent="LKXpSwE4TlSsRt7zyoWO-1">
          <mxGeometry x="61" y="200" width="78" height="78" as="geometry" />
        </mxCell>
        <mxCell id="pmHg2XoGszwwqJ66VTVL-2" value="AI" style="swimlane;whiteSpace=wrap;html=1;rounded=1;arcSize=19;fillColor=#d5e8d4;strokeColor=#82b366;" vertex="1" parent="1">
          <mxGeometry x="1060" y="330" width="200" height="350" as="geometry" />
        </mxCell>
        <mxCell id="LfMoOJRtayOU-CFHIk0B-1" value="Bedrock&lt;br&gt;(Nova Pro)" style="sketch=0;points=[[0,0,0],[0.25,0,0],[0.5,0,0],[0.75,0,0],[1,0,0],[0,1,0],[0.25,1,0],[0.5,1,0],[0.75,1,0],[1,1,0],[0,0.25,0],[0,0.5,0],[0,0.75,0],[1,0.25,0],[1,0.5,0],[1,0.75,0]];outlineConnect=0;fontColor=#232F3E;fillColor=#01A88D;strokeColor=#ffffff;dashed=0;verticalLabelPosition=bottom;verticalAlign=top;align=center;html=1;fontSize=12;fontStyle=0;aspect=fixed;shape=mxgraph.aws4.resourceIcon;resIcon=mxgraph.aws4.bedrock;" vertex="1" parent="pmHg2XoGszwwqJ66VTVL-2">
          <mxGeometry x="61" y="136" width="78" height="78" as="geometry" />
        </mxCell>
      </root>
    </mxGraphModel>
  </diagram>
</mxfile>
